# xmcd
#
# Track frame offsets:
#	150
#	10793
#	30666
#	41958
#	55660
#	79126
#	84194
#	111587
#	141381
#	163073
#	182356
#	207934
#
# Disc length: 3041 seconds
#
# Revision: 0
# Processed by: cddbd v1.5.2PL0 Copyright (c) Steve Scherf et al.
# Submitted via: dBpowerAMP V4.0
#
DISCID=9b0bdf0c
DTITLE=Laveil Rucker and Leju - Your Blood Your Love
DYEAR=2008
DGENRE=Gospel
TTITLE0=01 - Have Your Way - Intro
TTITLE1=02 - Have Your Way
TTITLE2=03 - Have Your Way - Reprise
TTITLE3=04 - He Is
TTITLE4=5 - He Is - Vamp
TTITLE5=06 - In Spite - Intro
TTITLE6=07 - In Spite
TTITLE7=08 - Your Blood Your Love
TTITLE8=09 - Your Blood Your Love II
TTITLE9=10 - Been Good 2U
TTITLE10=11 - I Worship U
TTITLE11=12 - I Worship U II
EXTD=
EXTT0=
EXTT1=
EXTT2=
EXTT3=
EXTT4=
EXTT5=
EXTT6=
EXTT7=
EXTT8=
EXTT9=
EXTT10=
EXTT11=
PLAYORDER=
